<?xml version="1.0" encoding="UTF-8"?>
<svg id="Layer_1" xmlns="http://www.w3.org/2000/svg" width="132.12" height="136.36" version="1.1" viewBox="0 0 132.12 136.36">
  <!-- Generator: Adobe Illustrator 29.1.0, SVG Export Plug-In . SVG Version: 2.1.0 Build 142)  -->
  <defs>
    <style>
      .st0 {
        fill: #231f20;
      }

      .st1 {
        fill: #2bb673;
      }

      .st2 {
        fill: none;
      }

      .st3 {
        fill: #389e47;
      }
    </style>
  </defs>
  <path class="st2" d="M-400.51,367.71c.8-1.32,1.49-2.69,2.18-4.05-.71,1.36-1.39,2.74-2.18,4.05Z"/>
  <path class="st1" d="M63.6,78.91c-.87-2.92-2.5-5.64-4.88-7.57-1.02-1-2.39-1.57-3.37-2.61,1.62-1.09,3.16-2.36,4.26-3.99,4.73-6.88,3.11-17.42-3.73-22.33-4.76-3.39-10.68-5.02-16.5-4.83-5.8-.21-11.74,1.13-16.59,4.39-3.59,2.47-6.29,6.31-6.97,10.65-.48,4.19.08,8.7,2.6,12.2,1.11,1.7,2.9,2.73,4.32,4.13-3.16,1.73-6.01,4.31-7.51,7.64-2.25,4.5-2.09,9.9-.38,14.55,1.62,4.26,5.16,7.49,9.07,9.65,2.93,1.53,6.17,2.36,9.41,2.93,5.13.68,10.45.57,15.43-.95,4.32-1.11,8.55-3.18,11.4-6.7,3.85-4.69,5.32-11.35,3.44-17.16ZM31.02,52.55c1.39-1.69,3.27-3.12,5.49-3.45,2.72-.3,5.72-.33,8.09,1.24,2.07,1.18,3.45,3.47,3.41,5.87.19,2.35-.99,4.74-2.99,5.99-2.84,1.8-6.49,2.02-9.67,1.11-2.56-.74-4.93-2.71-5.44-5.43-.22-1.82-.11-3.86,1.11-5.34ZM47.99,88.91c-2.13,2.41-5.45,3.53-8.61,3.4-3.36.15-7-.78-9.27-3.4-2.29-2.45-2.64-6.33-1.05-9.25,1.58-3.06,5.06-4.65,8.4-4.72,3.08-.37,6.46.05,9.01,1.95,3.71,2.63,4.51,8.56,1.52,12.01Z"/>
  <path class="st2" d="M103,52.82c-2.28-2.11-5.65-2.69-8.63-2.06-3.62.78-6.14,3.89-7.52,7.16-1.79,4.2-2.3,8.83-2.4,13.37.17,4.15.5,8.39,2.16,12.25,1.11,2.5,2.73,4.9,5.13,6.32,3.08,1.79,7.15,1.71,10.17-.2,2.5-1.45,3.85-4.14,5.01-6.66,2.28-6.53,2.37-13.67,1.08-20.41-.75-3.61-2.1-7.33-5.01-9.76Z"/>
  <path class="st3" d="M-591.8,306.43c-3.19-.04-6.38-.07-9.57-.1.67.02,4.29.05,9.57.1Z"/>
  <path class="st3" d="M125.84,138.4c-.48,0-.96.02-1.43.02,1.83,0,2.43,0,1.43-.02Z"/>
  <path class="st1" d="M113.79,44.05c-3.02-2.86-6.79-4.88-10.82-5.85-3.23-.8-6.61-.7-9.9-.43-2.24.25-4.43.86-6.48,1.79-5.47,2.24-9.82,6.75-12.47,11.97-3.03,5.99-4.31,12.74-4.18,19.43-.08,6.84,1.15,13.82,4.47,19.87,1.79,3.66,4.74,6.63,8.02,9,4.59,3.15,10.29,4.56,15.82,4.29,4.27-.37,8.62-1.44,12.19-3.9,2.97-1.85,5.35-4.49,7.38-7.31,3.22-5.17,5.04-11.18,5.57-17.23.27-5.55.26-11.22-1.22-16.62-1.62-5.52-3.98-11.12-8.39-15ZM106.93,82.99c-1.17,2.52-2.52,5.22-5.01,6.66-3.02,1.91-7.08,1.99-10.17.2-2.4-1.42-4.01-3.82-5.13-6.32-1.66-3.86-2-8.1-2.16-12.25.09-4.54.61-9.17,2.4-13.37,1.37-3.27,3.89-6.39,7.52-7.16,2.98-.63,6.35-.05,8.63,2.06,2.91,2.43,4.26,6.15,5.01,9.76,1.29,6.75,1.2,13.88-1.08,20.41Z"/>
  <g>
    <path class="st0" d="M24.65,35.6c.44,0,.87,0,1.31,0,4.12-1.62,8.72-2.42,13.44-2.26,4.4-.13,8.74.66,12.71,2.24,7.55,0,15.1,0,22.65-.08-1.84,3.28-4.56,5.95-6.69,9.05-.95,1.22-1.89,2.46-2.84,3.68,2.24,6.16,1.7,13.4-2.11,18.94-.33.49-.69.96-1.09,1.42,1.45,1.3,2.69,2.85,3.69,4.59-.02-.73-.04-1.46-.03-2.2-.14-7.71,1.46-15.1,4.64-21.37,3.29-6.47,8.46-11.43,14.58-13.95,2.45-1.1,5.04-1.81,7.69-2.11h.13c3.37-.28,7.34-.43,11.25.53.48.12.95.25,1.42.39.47-.6.93-1.21,1.39-1.82.74-.93,1.35-2.01,1.21-3.24-.04-5.21.03-10.42.03-15.63-29.31.06-58.63.07-87.95,0-.15,7.22.08,14.45-.09,21.67,1.54.15,3.1.18,4.65.16Z"/>
    <path class="st0" d="M110.03,105.37c-3.23,1.6-7.05,2.61-11.41,2.98h-.16c-.52.04-1.04.05-1.56.05-4.99,0-9.84-1.19-14.06-3.4-9.18.03-18.36.09-27.53-.08-1.67.78-3.46,1.44-5.4,1.95-3.31,1-6.91,1.51-10.76,1.51-2.06,0-4.18-.14-6.37-.43l-.19-.03c-2.71-.48-6.71-1.34-10.46-3.27-.92,1.19-1.83,2.4-2.75,3.59-.98,1.15-.69,2.74-.74,4.13.12,4.85-.15,9.71.17,14.55,30.4.04,60.8-.03,91.2,0,.32-4.26.09-8.52.15-12.78-.06-2.92.19-5.86-.13-8.77Z"/>
  </g>
  <path class="st2" d="M102.93,52.78c-2.28-2.11-5.65-2.69-8.63-2.06-3.62.78-6.14,3.89-7.52,7.16-1.79,4.2-2.3,8.83-2.4,13.37.17,4.15.5,8.39,2.16,12.25,1.11,2.5,2.73,4.9,5.13,6.32,3.08,1.79,7.15,1.71,10.17-.2,2.5-1.45,3.85-4.14,5.01-6.66,2.28-6.53,2.37-13.67,1.08-20.41-.75-3.61-2.1-7.33-5.01-9.76Z"/>
</svg>