<?xml version="1.0" encoding="UTF-8"?>
<svg id="Layer_1" xmlns="http://www.w3.org/2000/svg" width="327.99" height="209.12" version="1.1" viewBox="0 0 327.99 209.12">
  <!-- Generator: Adobe Illustrator 29.1.0, SVG Export Plug-In . SVG Version: 2.1.0 Build 142)  -->
  <defs>
    <style>
      .st0 {
        fill: #fff;
      }

      .st1 {
        fill: #2bb673;
      }

      .st2 {
        fill: none;
      }

      .st3 {
        fill: #389e47;
      }
    </style>
  </defs>
  <path class="st2" d="M-32.73,405.11c.8-1.32,1.49-2.69,2.18-4.05-.71,1.36-1.39,2.74-2.18,4.05Z"/>
  <path class="st0" d="M43.31,118.86c.07,2.76-.09,5.52.1,8.27,17.28.02,34.55-.02,51.83,0,.18-2.42.05-4.84.08-7.26-.04-1.74.12-3.49-.1-5.22-2.67.07-5.35.02-8.02.04-8.29-.06-16.58.12-24.86-.09,2.26-3.44,4.94-6.58,7.35-9.92,3.92-5.12,7.89-10.2,11.68-15.41,4.02-5.23,8.01-10.48,12.05-15.7.42-.53.77-1.14.69-1.84-.02-2.96.02-5.92.02-8.88-16.66.04-33.32.04-49.98,0-.09,4.1.05,8.21-.05,12.31.88.08,1.76.1,2.64.09,9.49-.06,18.99.04,28.48-.06-1.04,1.87-2.59,3.38-3.8,5.14-9.32,11.98-18.39,24.17-27.67,36.19-.56.66-.39,1.56-.42,2.35Z"/>
  <path class="st0" d="M116.8,127.12c-.04-16.2-.06-32.4,0-48.59-4.72,0-9.43.02-14.15-.02.02,16.21-.01,32.41.02,48.62,4.71-.01,9.42.03,14.12-.01Z"/>
  <path class="st1" d="M234.18,103.08c-.87-2.92-2.5-5.64-4.88-7.57-1.02-1-2.39-1.57-3.37-2.61,1.62-1.09,3.16-2.36,4.26-3.99,4.73-6.88,3.11-17.42-3.73-22.33-4.76-3.39-10.68-5.02-16.5-4.83-5.8-.21-11.74,1.13-16.59,4.39-3.59,2.47-6.29,6.31-6.97,10.65-.48,4.19.08,8.7,2.6,12.2,1.11,1.7,2.9,2.73,4.32,4.13-3.16,1.73-6.01,4.31-7.51,7.64-2.25,4.5-2.09,9.9-.38,14.55,1.62,4.26,5.16,7.49,9.07,9.65,2.93,1.53,6.17,2.36,9.41,2.93,5.13.68,10.45.57,15.43-.95,4.32-1.11,8.55-3.18,11.4-6.7,3.85-4.69,5.32-11.35,3.44-17.16ZM201.6,76.72c1.39-1.69,3.27-3.12,5.49-3.45,2.72-.3,5.72-.33,8.09,1.24,2.07,1.18,3.45,3.47,3.41,5.87.19,2.35-.99,4.74-2.99,5.99-2.84,1.8-6.49,2.02-9.67,1.11-2.56-.74-4.93-2.71-5.44-5.43-.22-1.82-.11-3.86,1.11-5.34ZM218.57,113.08c-2.13,2.41-5.45,3.53-8.61,3.4-3.36.15-7-.78-9.27-3.4-2.29-2.45-2.64-6.33-1.05-9.25,1.58-3.06,5.06-4.65,8.4-4.72,3.08-.37,6.46.05,9.01,1.95,3.71,2.63,4.51,8.56,1.52,12.01Z"/>
  <path class="st2" d="M273.58,76.99c-2.28-2.11-5.65-2.69-8.63-2.06-3.62.78-6.14,3.89-7.52,7.16-1.79,4.2-2.3,8.83-2.4,13.37.17,4.15.5,8.39,2.16,12.25,1.11,2.5,2.73,4.9,5.13,6.32,3.08,1.79,7.15,1.71,10.17-.2,2.5-1.45,3.85-4.14,5.01-6.66,2.28-6.53,2.37-13.67,1.08-20.41-.75-3.61-2.1-7.33-5.01-9.76Z"/>
  <path class="st0" d="M175.09,89.17c-1.84-3.26-4.58-5.98-7.72-7.98-4.58-2.71-10.02-3.88-15.31-3.35-4.78.37-9.49,2.5-12.58,6.23,0-1.85.07-5.54.07-5.54-4.53.04-9.24,0-13.77,0,.03,17.68.09,60.71,0,78.33l14.04-6.28c.04-18.73.06-9.63,0-28.36,3.45,3.05,7.66,5.38,12.3,5.87,4.62.55,9.34-.47,13.54-2.41,5.49-2.65,9.58-7.74,11.5-13.47.83-2.5,1.18-5.12,1.4-7.73.34-5.3-.98-10.64-3.46-15.31ZM162.69,109.37c-1.29,2.85-3.88,4.95-6.79,5.98-3.72,1.23-8.03.52-11.18-1.82-4.61-3.45-5.83-10.14-4.08-15.41,1.35-4.21,5.15-7.61,9.59-8.15,3.23-.39,6.67.39,9.22,2.47,2.4,2.01,4.01,4.93,4.45,8.03.32,3,.15,6.16-1.22,8.9Z"/>
  <path class="st3" d="M-224.02,343.83c-3.19-.04-6.38-.07-9.57-.1.67.02,4.29.05,9.57.1Z"/>
  <path class="st3" d="M125.84,175.8c-.48,0-.96.02-1.43.02,1.83,0,2.43,0,1.43-.02Z"/>
  <path class="st1" d="M284.36,68.21c-3.02-2.86-6.79-4.88-10.82-5.85-3.23-.8-6.61-.7-9.9-.43-2.24.25-4.43.86-6.48,1.79-5.47,2.24-9.82,6.75-12.47,11.97-3.03,5.99-4.31,12.74-4.18,19.43-.08,6.84,1.15,13.82,4.47,19.87,1.79,3.66,4.74,6.63,8.02,9,4.59,3.15,10.29,4.56,15.82,4.29,4.27-.37,8.62-1.44,12.19-3.9,2.97-1.85,5.35-4.49,7.38-7.31,3.22-5.17,5.04-11.18,5.57-17.23.27-5.55.26-11.22-1.22-16.62-1.62-5.52-3.98-11.12-8.39-15ZM277.51,107.16c-1.17,2.52-2.52,5.22-5.01,6.66-3.02,1.91-7.08,1.99-10.17.2-2.4-1.42-4.01-3.82-5.13-6.32-1.66-3.86-2-8.1-2.16-12.25.09-4.54.61-9.17,2.4-13.37,1.37-3.27,3.89-6.39,7.52-7.16,2.98-.63,6.35-.05,8.63,2.06,2.91,2.43,4.26,6.15,5.01,9.76,1.29,6.75,1.2,13.88-1.08,20.41Z"/>
  <path class="st2" d="M273.5,76.95c-2.28-2.11-5.65-2.69-8.63-2.06-3.62.78-6.14,3.89-7.52,7.16-1.79,4.2-2.3,8.83-2.4,13.37.17,4.15.5,8.39,2.16,12.25,1.11,2.5,2.73,4.9,5.13,6.32,3.08,1.79,7.15,1.71,10.17-.2,2.5-1.45,3.85-4.14,5.01-6.66,2.28-6.53,2.37-13.67,1.08-20.41-.75-3.61-2.1-7.33-5.01-9.76Z"/>
  <circle class="st0" cx="109.64" cy="65.82" r="8.63"/>
  <path class="st2" d="M269.16,82.21l-.27-.23c-.39-.36-1.41-.62-2.52-.38-.83.18-1.9,1.45-2.58,3.09-1.16,2.73-1.75,6.1-1.85,10.63.14,3.32.39,6.78,1.6,9.59.67,1.5,1.5,2.64,2.3,3.11.82.48,2.12.45,2.97-.09l.23-.14c.68-.39,1.55-2.18,2.06-3.28,1.62-4.82,1.87-10.53.71-16.54-.58-2.81-1.48-4.78-2.66-5.76Z"/>
</svg>